<svg id="fi_3135629" enable-background="new 0 0 512.358 512.358" height="512" viewBox="0 0 512.358 512.358" width="512" xmlns="http://www.w3.org/2000/svg"><g><path d="m412.425 120.694c3.707 2.141 8.312 2.141 12.02 0l32.485-18.756c3.707-2.14 6.01-6.128 6.01-10.408 0-4.281-2.303-8.27-6.01-10.409l-32.485-18.756c-3.707-2.141-8.312-2.139-12.02 0-3.707 2.141-6.01 6.129-6.01 10.409v37.511c0 4.28 2.303 8.269 6.01 10.409zm8.99-42.757 23.543 13.593-23.543 13.594z"></path><path d="m484.03 178.563h-104.187c-11.015 0-19.976 8.961-19.976 19.976v104.188c0 11.015 8.961 19.976 19.976 19.976h104.187c11.015 0 19.976-8.961 19.976-19.976v-104.188c0-11.015-8.961-19.976-19.976-19.976zm4.976 124.164c0 2.743-2.232 4.976-4.976 4.976h-104.187c-2.743 0-4.976-2.232-4.976-4.976v-104.188c0-2.743 2.232-4.976 4.976-4.976h104.187c2.743 0 4.976 2.232 4.976 4.976z"></path><path d="m431.937 228.387c-18.6 0-33.731 15.132-33.731 33.731 0 18.601 15.132 33.732 33.731 33.732s33.731-15.132 33.731-33.732c0-18.599-15.132-33.731-33.731-33.731zm0 52.464c-10.328 0-18.731-8.403-18.731-18.732 0-10.328 8.403-18.731 18.731-18.731s18.731 8.403 18.731 18.731-8.403 18.732-18.731 18.732z"></path><path d="m467.5 205.158c-4.143 0-7.5 3.357-7.5 7.5v6.518c0 4.143 3.357 7.5 7.5 7.5s7.5-3.357 7.5-7.5v-6.518c0-4.142-3.357-7.5-7.5-7.5z"></path><path d="m423.043 424.924c-.604.604-1.589.606-2.193 0l-4.125-4.125c-2.93-2.928-7.678-2.928-10.607 0-2.929 2.93-2.929 7.678 0 10.607l4.125 4.125c6.452 6.452 16.952 6.451 23.407 0l21.456-21.457c6.451-6.453 6.451-16.953-.001-23.407l-4.125-4.124c-2.932-2.929-7.681-2.929-10.606.001-2.929 2.93-2.929 7.678.001 10.606l4.124 4.123c.604.605.604 1.59 0 2.194z"></path><path d="m260.479 121.5c-.001 0-.001 0 0 0-4.143 0-7.501 3.357-7.501 7.499v3.908l-43.636 18.15c-.215-3.95-3.476-7.09-7.478-7.09-.001 0-.001 0-.001 0-4.142 0-7.5 3.357-7.5 7.499v5.821l-33.696 14.016c-52.838-.005-28.674-.003-84.479-.008-.002 0-.001 0-.003 0-12.172 0-22.076 9.904-22.078 22.077v1.966l-8.843-.001v-.477c0-4.143-3.357-7.501-7.499-7.501-.001 0-.001 0-.001 0-4.142 0-7.5 3.357-7.5 7.499v1.112c-17.083 3.166-30.262 18.153-30.264 36.465-.002 18.297 13.161 33.298 30.256 36.47v1.111c0 4.143 3.357 7.501 7.499 7.501h.001c4.142 0 7.5-3.357 7.5-7.499v-.478l8.843.001v1.966c-.001 5.897 2.295 11.442 6.465 15.613s9.715 6.468 15.612 6.468h2.005l-.001 24.159c0 4.142 3.357 7.5 7.5 7.5 4.142 0 7.5-3.357 7.5-7.5l.001-24.158 36.496.003-.002 23.709c0 .348-.204.668-.518.814l-10.9 5.107c-5.56 2.604-9.153 8.253-9.155 14.395l-.003 32.562c0 3.137-2.539 5.678-5.68 5.678h-4.564c-3.139 0-5.68-2.54-5.68-5.681l.002-19.07c0-4.143-3.357-7.501-7.499-7.501-.001 0-.001 0-.001 0-4.142 0-7.5 3.357-7.5 7.499l-.002 19.07c-.002 11.43 9.247 20.681 20.679 20.683h4.566c11.428 0 20.679-9.249 20.679-20.677l.003-32.56c0-.347.203-.666.518-.813l10.902-5.108c5.559-2.605 9.151-8.255 9.153-14.395l.002-23.71 15.975.001 33.696 14.022v5.82c0 4.143 3.357 7.501 7.499 7.501h.001c4.003 0 7.264-3.138 7.479-7.087l43.632 18.157v3.906c0 4.143 3.357 7.501 7.499 7.501h.001c4.142 0 7.5-3.357 7.5-7.499l.001-8.907c0-.001 0-.002 0-.003l.008-94.548.009-103.458c.001-4.142-3.357-7.5-7.498-7.5zm-164.42 64.797c3.691 0 28.294.002 30.735.002l-.001 10.668c0 3.064-2.48 5.546-5.546 5.546h-.001s0 0-.001 0l-19.641-.001c-3.065 0-5.547-2.48-5.547-5.548zm-81.059 46.139c0-9.885 6.439-18.146 15.261-21.008l-.004 42.019c-8.822-2.864-15.259-11.125-15.257-21.011zm30.257 22.104.004-44.203h8.842c-.001 6.745-.003 37.268-.003 44.203zm25.914 21.975c-1.336-1.337-2.072-3.115-2.072-5.006.002-19.46.005-58.777.007-78.135 0-1.892.737-3.669 2.074-5.006s3.114-2.073 5.004-2.073h.001 4.874l-.001 10.667c-.002 11.33 9.215 20.548 20.546 20.55l19.641.001h.003c11.356 0 20.546-9.19 20.546-20.545l.001-10.668 12.867.001c-.001 11.169-.007 81.317-.008 92.293l-78.476-.007c-1.892.001-3.67-.735-5.007-2.072zm98.482 4.579c.001-11.085.008-86.117.009-97.287l24.698-10.273-.011 117.838zm39.696 16.519.012-130.319 43.615-18.141-.007 83.279-.007 83.329z"></path><path d="m328.3 224.938h-30.118c-4.143 0-7.5 3.357-7.5 7.5s3.357 7.5 7.5 7.5h30.118c4.143 0 7.5-3.357 7.5-7.5s-3.358-7.5-7.5-7.5z"></path><path d="m294.45 169.093 21.296-21.297c2.929-2.929 2.929-7.678-.001-10.606-2.928-2.928-7.677-2.929-10.606.001l-21.296 21.297c-2.929 2.929-2.929 7.678.001 10.606 2.928 2.928 7.676 2.929 10.606-.001z"></path><path d="m293.872 295.543c-2.93-2.928-7.678-2.928-10.607 0-2.929 2.93-2.929 7.678 0 10.607l21.297 21.297c2.931 2.929 7.678 2.928 10.607 0 2.929-2.93 2.929-7.678 0-10.607z"></path><path d="m431.937 340.637c-39.55 0-71.726 32.176-71.726 71.726 0 11.095 2.591 22.081 7.516 31.969l-7.26 27.094c-.693 2.589.046 5.35 1.94 7.245 1.896 1.895 4.658 2.634 7.245 1.94l25.31-6.781c11.147 6.723 23.857 10.259 36.975 10.259 16.207 0 31.512-5.292 44.26-15.304 3.257-2.559 3.824-7.273 1.266-10.531-2.559-3.257-7.272-3.821-10.531-1.266-10.079 7.916-22.18 12.101-34.994 12.101-11.297 0-22.208-3.314-31.555-9.585-1.799-1.206-4.029-1.577-6.12-1.016l-15.944 4.272 4.656-17.378c.503-1.877.258-3.876-.684-5.576-4.631-8.358-7.079-17.848-7.079-27.443 0-31.278 25.447-56.726 56.726-56.726s56.726 25.447 56.726 56.726c0 8.251-1.746 16.224-5.189 23.697-1.733 3.762-.089 8.217 3.673 9.95 3.761 1.734 8.217.089 9.95-3.673 4.357-9.456 6.566-19.541 6.566-29.975-.002-39.55-32.178-71.725-71.727-71.725z"></path><path d="m490.095 28.271h-69.396c-4.143 0-7.5 3.357-7.5 7.5s3.357 7.5 7.5 7.5h69.396c4.005 0 7.264 3.259 7.264 7.264v81.991c0 4.005-3.259 7.264-7.264 7.264h-116.316c-4.006 0-7.265-3.259-7.265-7.264v-81.992c0-4.005 3.259-7.264 7.265-7.264h16.933c4.143 0 7.5-3.357 7.5-7.5s-3.357-7.5-7.5-7.5h-16.933c-12.276 0-22.265 9.987-22.265 22.264v81.991c0 12.276 9.988 22.264 22.265 22.264h116.315c12.276 0 22.264-9.987 22.264-22.264v-81.991c0-12.276-9.987-22.263-22.263-22.263z"></path></g></svg>